<svg id="logo" xmlns="http://www.w3.org/2000/svg" version="1.0" width="900.000000pt" height="891.000000pt" viewBox="0 0 900.000000 891.000000" preserveAspectRatio="xMidYMid meet">
<metadata>
Created by potrace 1.10, written by Peter Selinger 2001-2011
</metadata>
<g transform="translate(0.000000,891.000000) scale(0.100000,-0.100000)" fill="#ffff" stroke="#ffff">
<path d="M3768 6752 c-37 -4 -73 -13 -80 -19 -6 -7 -19 -13 -28 -13 -28 0 -115 -52 -163 -99 -33 -31 -63 -74 -90 -131 -39 -80 -41 -90 -41 -175 0 -73 4 -97 22 -130 12 -22 22 -43 22 -48 0 -9 37 -63 60 -86 20 -21 94 -70 130 -87 8 -4 27 -16 42 -26 15 -11 60 -30 100 -44 40 -14 80 -32 89 -40 8 -8 24 -14 35 -14 10 0 28 -7 38 -15 11 -8 25 -15 32 -15 37 0 274 -139 274 -161 0 -20 -50 -25 -252 -24 -164 1 -218 -2 -218 -11 0 -7 21 -30 46 -51 l47 -39 8 -175 c9 -196 5 -211 -48 -191 -168 63 -243 115 -334 229 -5 7 -27 57 -49 110 -34 86 -42 98 -65 101 l-27 3 7 -153 c3 -84 12 -164 18 -177 13 -25 146 -94 253 -130 74 -24 179 -44 202 -37 44 14 44 14 43 -470 -1 -253 -4 -475 -8 -494 -6 -40 -26 -66 -65 -86 -25 -13 -39 -43 -20 -45 4 0 132 -2 285 -3 255 -2 280 -3 289 -19 5 -10 8 -24 5 -30 -2 -7 1 -55 8 -108 10 -80 20 -112 64 -200 28 -58 65 -118 82 -134 17 -17 37 -42 45 -57 8 -15 31 -36 52 -47 20 -10 48 -31 62 -46 14 -15 50 -38 80 -52 30 -13 73 -33 96 -44 23 -10 48 -19 57 -19 9 0 40 -9 69 -21 43 -17 82 -22 203 -26 144 -5 154 -5 227 21 110 38 216 93 272 143 26 24 51 43 56 43 4 0 26 23 50 52 l44 51 2 191 c1 105 3 200 4 210 2 32 -15 38 -112 40 -51 1 -117 6 -145 10 l-53 9 0 -32 c0 -28 5 -34 43 -50 23 -10 49 -26 56 -35 18 -22 35 -346 20 -392 -10 -33 -109 -119 -164 -143 -134 -59 -298 -63 -450 -12 -147 50 -293 192 -379 366 -21 44 -43 89 -49 99 -11 23 -42 136 -51 186 -9 52 4 63 78 71 105 10 219 73 334 185 111 107 161 186 213 334 21 62 40 180 32 208 -8 33 22 47 75 35 172 -40 324 -157 369 -284 19 -51 39 -62 63 -34 11 13 11 26 2 66 -7 28 -12 80 -12 115 0 36 -4 73 -9 83 -20 37 -296 121 -399 121 -74 0 -88 15 -95 107 -8 108 -52 221 -129 334 -43 64 -156 163 -226 197 -26 13 -54 28 -62 33 -59 36 -155 67 -232 74 -42 3 -81 12 -86 18 -5 7 -13 28 -17 47 -16 74 -110 180 -204 229 -31 16 -77 40 -102 54 -25 13 -78 36 -118 50 -40 14 -78 30 -84 36 -6 6 -17 11 -25 11 -31 0 -205 95 -267 147 -80 66 -105 115 -105 209 0 117 58 204 170 255 25 11 53 25 62 30 32 17 213 11 286 -10 64 -17 168 -74 203 -110 32 -34 91 -126 96 -153 7 -36 27 -51 54 -43 19 6 21 12 14 49 -3 22 -10 80 -13 127 -4 47 -13 93 -20 101 -13 17 -83 43 -202 77 -83 23 -275 34 -392 23z m472 -1162 c20 -11 50 -95 50 -139 -1 -77 -68 -189 -143 -239 -83 -56 -86 -58 -104 -46 -15 9 -17 30 -14 194 1 101 7 194 11 206 8 20 17 23 72 27 35 2 73 4 86 5 13 1 32 -3 42 -8z m299 -78 c42 -21 94 -50 116 -64 52 -33 155 -140 191 -198 44 -69 90 -182 98 -236 4 -27 15 -70 24 -96 20 -57 8 -78 -47 -78 -70 0 -240 -90 -329 -174 -61 -56 -153 -177 -168 -219 -8 -22 -21 -48 -28 -57 -26 -28 -48 -104 -63 -220 -8 -63 -17 -117 -20 -120 -2 -3 -46 -3 -96 -2 -119 4 -167 28 -179 86 -5 21 -7 251 -6 510 l3 471 39 3 c22 2 49 10 60 18 11 8 26 14 34 14 21 0 117 76 156 123 52 63 86 132 92 186 12 108 12 108 123 53z m440 -721 c10 -7 11 -27 6 -97 -4 -49 -13 -105 -20 -124 -7 -20 -16 -59 -20 -89 -4 -29 -16 -74 -28 -100 -26 -60 -103 -168 -130 -183 -11 -6 -30 -19 -41 -30 -20 -19 -66 -42 -170 -87 -61 -26 -76 -17 -76 46 0 118 32 303 61 353 5 8 17 31 28 50 39 72 141 166 231 213 106 55 134 64 159 48z"/>
<path d="M1925 2947 c-67 -36 -85 -62 -85 -123 0 -67 15 -83 114 -130 134 -64 166 -118 94 -163 -29 -18 -113 6 -141 39 -27 31 -73 61 -81 53 -12 -12 -6 -74 9 -97 20 -31 81 -50 136 -42 121 16 129 18 154 48 19 22 25 41 25 77 0 66 -26 96 -119 138 -91 41 -121 67 -121 103 0 20 10 34 38 54 41 28 66 27 89 -4 19 -27 91 -72 102 -65 17 10 13 72 -5 89 -8 9 -26 16 -38 16 -13 0 -29 7 -36 15 -18 22 -88 18 -135 -8z"/>
<path d="M2375 2950 c-16 -11 -36 -20 -44 -20 -8 0 -30 -12 -48 -26 -94 -71 -98 -264 -9 -356 55 -57 98 -72 183 -64 41 3 87 13 102 21 98 50 130 210 68 336 -21 44 -36 60 -70 77 -24 12 -50 22 -58 22 -8 0 -23 7 -33 15 -27 20 -55 19 -91 -5z m161 -123 c19 -29 36 -72 44 -115 12 -64 11 -70 -11 -117 l-24 -50 -72 -3 c-67 -3 -73 -1 -105 27 -19 17 -43 54 -57 90 -42 106 -14 213 64 245 47 20 120 -16 161 -77z"/>
<path d="M4377 2950 c-14 -11 -32 -20 -41 -20 -26 0 -77 -36 -96 -68 -10 -17 -24 -57 -30 -89 -22 -112 31 -227 126 -273 39 -19 54 -21 120 -15 83 8 117 21 155 62 85 91 72 272 -25 349 -28 22 -151 74 -177 74 -4 0 -18 -9 -32 -20z m92 -63 c35 -17 52 -35 78 -82 28 -52 33 -70 33 -129 0 -56 -4 -76 -22 -103 -22 -31 -26 -33 -86 -33 -101 0 -139 36 -176 162 -16 55 -16 60 4 115 11 31 20 58 20 60 0 1 12 9 28 17 37 21 69 19 121 -7z"/>
<path d="M5023 2950 c-10 -12 -30 -20 -48 -20 -36 0 -80 -37 -114 -95 -34 -57 -34 -176 -1 -232 58 -96 113 -128 209 -120 134 10 191 53 191 144 0 63 -13 83 -56 83 -42 0 -51 -17 -36 -69 15 -49 3 -94 -30 -105 -39 -14 -114 2 -149 31 -66 56 -91 191 -49 272 20 40 76 81 111 81 27 0 81 -29 97 -52 11 -15 62 -48 75 -48 11 0 14 44 6 75 -8 26 -17 36 -37 41 -15 3 -42 12 -60 20 -46 20 -89 18 -109 -6z"/>
<path d="M5831 2950 c-13 -11 -32 -20 -42 -20 -28 0 -85 -55 -109 -106 -18 -36 -21 -58 -18 -117 3 -67 7 -76 47 -131 59 -80 107 -101 209 -92 87 7 126 27 168 88 27 38 29 48 29 132 0 80 -3 96 -27 136 -29 50 -72 86 -114 96 -16 4 -38 13 -49 20 -28 20 -66 17 -94 -6z m83 -54 c100 -42 154 -199 106 -310 l-19 -46 -74 0 c-71 0 -74 1 -109 38 -54 56 -68 91 -68 173 0 59 4 79 23 106 34 50 82 64 141 39z"/>
<path d="M3445 2954 c-89 -9 -81 10 -77 -202 3 -136 1 -195 -8 -212 -10 -18 -9 -25 4 -38 19 -19 81 -20 115 -2 l23 12 -21 22 c-19 20 -21 35 -22 198 -1 97 2 181 5 187 11 17 41 13 82 -11 63 -38 99 -82 118 -143 23 -71 17 -121 -21 -177 -22 -33 -37 -44 -64 -48 -53 -9 -66 -20 -44 -37 34 -24 89 -16 136 20 64 48 84 96 83 192 0 99 -25 152 -87 192 -56 36 -144 54 -222 47z"/>
<path d="M3900 2951 l-65 -6 2 -40 c6 -155 6 -290 -1 -347 l-8 -68 55 0 c65 0 90 19 64 48 -13 15 -16 47 -16 197 0 99 3 186 8 194 12 19 68 5 112 -30 51 -40 84 -52 99 -33 16 18 -4 70 -31 84 -18 10 -108 11 -219 1z"/>
<path d="M2728 2945 c-2 -3 -3 -86 0 -184 3 -116 1 -190 -6 -210 -17 -49 -7 -61 53 -61 36 0 57 5 66 16 12 15 11 19 -9 32 -21 14 -22 21 -22 154 0 76 5 159 11 184 14 55 2 74 -51 74 -20 0 -39 -2 -42 -5z"/>
<path d="M3082 2937 c-7 -8 -7 -38 0 -96 8 -69 8 -149 -2 -325 -1 -25 3 -28 49 -30 55 -1 69 14 53 57 -15 42 -16 287 -1 340 8 28 7 42 -2 53 -14 17 -83 19 -97 1z"/>
<path d="M5345 2944 c-6 -2 -9 -86 -8 -226 l1 -223 44 -3 c55 -4 80 17 53 44 -15 16 -17 39 -14 213 l4 196 -35 2 c-19 1 -39 0 -45 -3z"/>
<path d="M6203 2938 c-8 -9 -8 -30 -1 -68 8 -47 6 -244 -4 -344 -3 -24 2 -31 25 -39 20 -6 37 -6 54 2 23 10 24 15 17 54 -5 23 -8 123 -9 222 l0 180 -36 3 c-21 2 -40 -2 -46 -10z"/>
<path d="M6330 2934 c8 -11 27 -31 42 -45 15 -14 30 -37 33 -51 9 -35 -18 -84 -50 -92 -24 -6 -25 -7 -10 -34 8 -15 20 -34 25 -42 14 -22 60 -129 60 -140 0 -14 51 -50 72 -50 10 0 21 7 24 15 6 14 -56 150 -96 212 l-21 31 20 7 c29 9 61 58 61 93 0 39 -42 89 -80 96 -17 3 -45 9 -62 12 -31 6 -32 6 -18 -12z"/>
<path d="M6572 2934 c-6 -11 -6 -29 -1 -48 13 -44 11 -323 -2 -347 -16 -31 5 -49 58 -49 49 0 63 17 44 54 -11 20 -11 238 1 366 l3 35 -47 3 c-36 2 -49 -1 -56 -14z"/>
<path d="M6883 2938 c-13 -6 -25 -19 -28 -28 -7 -22 11 -69 37 -97 21 -22 57 -113 58 -145 0 -9 11 -30 25 -46 15 -18 28 -49 31 -75 5 -35 12 -47 31 -56 48 -22 93 -10 93 25 0 13 -8 28 -18 33 -17 9 -52 77 -87 171 -9 25 -24 60 -33 78 -9 19 -23 54 -31 79 -19 55 -46 76 -78 61z"/>
<path d="M6830 2765 c0 -14 5 -25 10 -25 6 0 10 11 10 25 0 14 -4 25 -10 25 -5 0 -10 -11 -10 -25z"/>
<path d="M4031 2756 l-44 -23 36 -22 c21 -13 48 -21 64 -19 25 3 28 7 28 43 0 50 -20 55 -84 21z"/>
<path d="M6790 2701 c-5 -11 -10 -28 -10 -39 0 -11 -7 -25 -15 -32 -8 -7 -15 -24 -15 -38 0 -14 -11 -35 -25 -48 -21 -20 -24 -27 -15 -44 6 -11 19 -20 29 -20 25 0 55 35 47 56 -4 9 -4 32 0 50 5 29 12 36 45 46 35 10 54 28 29 28 -5 0 -16 14 -25 30 -18 35 -30 38 -45 11z"/>
<path d="M4126 2571 c-10 -11 -42 -25 -72 -31 -30 -6 -54 -16 -54 -21 0 -15 65 -39 104 -39 46 0 70 24 62 64 -9 42 -20 50 -40 27z"/>
<path d="M5601 2567 c-6 -8 -35 -21 -64 -27 -73 -18 -76 -21 -31 -41 46 -21 105 -24 122 -7 16 16 15 50 -1 72 -12 16 -15 16 -26 3z"/>
<path d="M2987 2564 c-3 -4 -30 -14 -59 -24 -29 -9 -52 -21 -50 -26 3 -13 62 -32 99 -33 41 -1 61 29 44 65 -11 24 -22 30 -34 18z"/>
<path d="M3295 2048 c-64 -33 -75 -52 -75 -128 0 -57 3 -70 23 -88 45 -42 139 -51 168 -16 23 28 3 44 -56 43 -67 -2 -85 11 -85 61 0 52 28 75 93 75 67 0 77 25 20 51 -21 10 -40 18 -43 20 -3 1 -23 -7 -45 -18z"/>
<path d="M3527 2050 c-14 -11 -30 -20 -36 -20 -14 0 -51 -74 -51 -103 0 -67 60 -127 127 -127 55 0 76 11 102 54 41 66 17 152 -53 195 -42 26 -57 26 -89 1z m91 -66 c16 -11 22 -25 22 -52 -1 -48 -19 -72 -62 -79 -30 -4 -38 -1 -56 22 -28 35 -28 65 -1 99 24 30 63 34 97 10z"/>
<path d="M4135 2062 c-14 -14 -3 -43 20 -52 31 -12 39 -44 31 -123 -7 -71 3 -98 31 -81 15 9 18 26 19 95 1 81 2 83 35 111 20 17 29 31 24 37 -11 10 -151 21 -160 13z"/>
<path d="M4793 2048 c-61 -44 -80 -130 -40 -189 29 -43 79 -68 140 -69 l47 0 0 36 0 36 -48 -7 c-64 -9 -102 19 -102 73 0 59 11 67 87 67 83 0 91 18 23 52 -57 28 -68 28 -107 1z"/>
<path d="M3997 2049 c-47 -28 -35 -119 18 -139 20 -7 26 -16 23 -33 -2 -18 -10 -23 -40 -25 -68 -6 -37 -52 34 -52 44 0 66 17 74 57 6 29 2 36 -40 74 -56 51 -59 69 -11 69 39 0 46 17 17 43 -21 19 -49 21 -75 6z"/>
<path d="M4340 2034 c-11 -28 -14 -193 -4 -218 14 -37 44 -10 44 40 0 35 16 29 45 -17 17 -26 32 -39 43 -37 25 5 27 45 3 58 -26 14 -27 40 -1 73 30 37 25 61 -19 96 -50 40 -97 42 -111 5z m88 -63 c-2 -18 -10 -27 -25 -29 -20 -3 -23 1 -23 26 0 17 6 32 13 35 23 8 38 -5 35 -32z"/>
<path d="M4660 2041 c-5 -11 -10 -55 -8 -97 2 -81 -8 -99 -47 -88 -39 12 -45 25 -45 94 0 77 -6 100 -26 100 -11 0 -14 -20 -14 -92 0 -75 4 -99 20 -125 18 -30 25 -33 65 -33 36 0 52 6 71 25 24 24 25 30 22 127 -3 103 -15 131 -38 89z"/>
<path d="M4967 2047 c-7 -17 1 -28 36 -50 28 -18 28 -20 25 -100 l-3 -82 30 0 30 0 0 88 c0 74 2 88 17 93 19 6 33 38 23 54 -10 16 -152 13 -158 -3z"/>
<path d="M5323 2042 c-46 -22 -67 -71 -58 -137 8 -69 36 -96 104 -103 47 -4 53 -2 86 31 32 32 35 40 35 95 0 59 -1 62 -42 96 -45 39 -73 43 -125 18z m91 -54 c35 -15 41 -43 21 -89 -19 -42 -42 -54 -77 -43 -32 10 -47 33 -48 72 0 58 48 86 104 60z"/>
<path d="M3733 2038 c-5 -7 -9 -60 -9 -118 1 -101 2 -105 24 -108 21 -3 22 0 22 57 0 33 4 62 8 65 11 6 41 -29 68 -79 16 -29 29 -41 48 -43 34 -4 43 18 28 73 -7 28 -8 54 -2 74 12 41 -3 84 -28 79 -13 -3 -17 -14 -17 -50 0 -43 -22 -88 -31 -63 -8 21 -86 125 -94 125 -4 0 -12 -6 -17 -12z"/>
<path d="M5697 2044 c-4 -4 -7 -34 -7 -66 0 -76 -15 -76 -72 0 -27 35 -51 57 -63 57 -18 0 -21 -10 -27 -105 -5 -89 -4 -107 9 -117 26 -20 34 -5 32 58 -3 88 10 91 62 15 48 -70 82 -94 105 -75 11 9 14 37 12 123 -3 103 -4 111 -23 114 -12 2 -24 0 -28 -4z"/>
<path d="M5177 2033 c-9 -14 -11 -198 -3 -211 10 -16 43 -15 48 1 2 6 1 57 -2 112 -4 82 -8 100 -22 103 -9 2 -18 -1 -21 -5z"/>
</g>
</svg>